<?xml version="1.0" encoding="UTF-8" standalone="no"?>
<!-- Created with Inkscape (http://www.inkscape.org/) -->

<svg
   width="4.9212689mm"
   height="4.9212689mm"
   viewBox="0 0 4.9212689 4.9212689"
   version="1.1"
   id="svg5"
   inkscape:version="1.1.1 (3bf5ae0d25, 2021-09-20)"
   sodipodi:docname="yoga_logo.svg"
   inkscape:export-filename="/home/donnchadh/yoga_logo.png"
   inkscape:export-xdpi="3096.7625"
   inkscape:export-ydpi="3096.7625"
   xmlns:inkscape="http://www.inkscape.org/namespaces/inkscape"
   xmlns:sodipodi="http://sodipodi.sourceforge.net/DTD/sodipodi-0.dtd"
   xmlns="http://www.w3.org/2000/svg"
   xmlns:svg="http://www.w3.org/2000/svg">
  <sodipodi:namedview
     id="namedview7"
     pagecolor="#ffffff"
     bordercolor="#666666"
     borderopacity="1.0"
     inkscape:pageshadow="2"
     inkscape:pageopacity="0.0"
     inkscape:pagecheckerboard="0"
     inkscape:document-units="mm"
     showgrid="false"
     inkscape:snap-smooth-nodes="true"
     inkscape:object-nodes="false"
     fit-margin-top="0"
     fit-margin-left="0"
     fit-margin-right="0"
     fit-margin-bottom="0"
     inkscape:zoom="32"
     inkscape:cx="11.3125"
     inkscape:cy="10.0625"
     inkscape:window-width="2157"
     inkscape:window-height="1361"
     inkscape:window-x="26"
     inkscape:window-y="23"
     inkscape:window-maximized="0"
     inkscape:current-layer="layer1" />
  <defs
     id="defs2" />
  <g
     inkscape:label="Layer 1"
     inkscape:groupmode="layer"
     id="layer1"
     transform="translate(-88.761154,-125.43278)">
    <rect
       style="fill:#ffffff;fill-opacity:1;stroke:none;stroke-width:0.105833;stroke-linecap:square;stroke-linejoin:round;stroke-miterlimit:4;stroke-dasharray:none;stroke-opacity:1"
       id="rect3628"
       width="1.7947906"
       height="0.95353103"
       x="90.319618"
       y="128.88683" />
    <rect
       style="fill:#edce97;fill-opacity:1;stroke:none;stroke-width:0.105833;stroke-linecap:square;stroke-linejoin:miter;stroke-miterlimit:4;stroke-dasharray:none;stroke-opacity:1"
       id="rect5853"
       width="11.55437"
       height="11.55437"
       x="82.587868"
       y="119.38581" />
    <g
       id="g5623"
       transform="translate(-0.03196911)"
       style="fill:#edce97;fill-opacity:1">
      <path
         id="circle4677"
         style="fill:#edce97;fill-opacity:1;stroke:#280b0b;stroke-width:0.4;stroke-linecap:square;stroke-linejoin:round;stroke-miterlimit:4;stroke-dasharray:none;stroke-opacity:1"
         d="m 344.75195,479.09766 a 5.1651804,5.1651804 0 0 0 -0.0273,0.50195 5.1651804,5.1651804 0 0 0 4.64648,5.13477 4.7363735,4.7363735 0 0 0 0.0899,-0.9004 4.7363735,4.7363735 0 0 0 -4.70899,-4.73632 z"
         transform="scale(0.26458333)" />
      <path
         id="circle4364"
         style="fill:#edce97;fill-opacity:1;stroke:#280b0b;stroke-width:0.4;stroke-linecap:square;stroke-linejoin:round;stroke-miterlimit:4;stroke-dasharray:none;stroke-opacity:1"
         d="m 344.69922,479.09766 a 4.7363735,4.7363735 0 0 0 -4.71094,4.73632 4.7363735,4.7363735 0 0 0 0.0898,0.9004 5.1651804,5.1651804 0 0 0 4.64649,-5.13477 5.1651804,5.1651804 0 0 0 -0.0254,-0.50195 z"
         transform="scale(0.26458333)" />
      <g
         id="g5431"
         transform="translate(0.21477325,-0.0728307)"
         style="fill:#edce97;fill-opacity:1">
        <path
           id="path2631"
           style="fill:#edce97;fill-opacity:1;stroke:#280b0b;stroke-width:0.105833;stroke-linecap:round;stroke-linejoin:miter;stroke-miterlimit:4;stroke-dasharray:none;stroke-opacity:1"
           d="m 89.290875,128.26607 a 1.7472735,1.7472735 0 0 0 -0.473358,0.0667 2.184097,2.184097 0 0 0 2.176095,2.0035 2.184097,2.184097 0 0 0 0.01292,-5.2e-4 1.7472735,1.7472735 0 0 0 0.03152,-0.32246 1.7472735,1.7472735 0 0 0 -1.747179,-1.74718 z" />
        <path
           id="path2740"
           style="fill:#edce97;fill-opacity:1;stroke:#280b0b;stroke-width:0.105833;stroke-linecap:round;stroke-linejoin:miter;stroke-miterlimit:4;stroke-dasharray:none;stroke-opacity:1"
           d="m 92.787089,128.26607 a 1.7472735,1.7472735 0 0 1 0.473358,0.0667 2.184097,2.184097 0 0 1 -2.176094,2.0035 2.184097,2.184097 0 0 1 -0.01292,-5.2e-4 1.7472735,1.7472735 0 0 1 -0.03152,-0.32246 1.7472735,1.7472735 0 0 1 1.747178,-1.74718 z" />
      </g>
      <circle
         style="fill:#edce97;fill-opacity:1;stroke:#280b0b;stroke-width:0.105833;stroke-linecap:round;stroke-linejoin:round;stroke-miterlimit:4;stroke-dasharray:none;stroke-opacity:1"
         id="circle3732"
         cx="91.208229"
         cy="125.97908"
         r="0.4557139" />
    </g>
  </g>
</svg>
