<svg xmlns="http://www.w3.org/2000/svg" xmlns:svg="http://www.w3.org/2000/svg" id="svg6" width="24" height="24" fill="#000" version="1.1" viewBox="0 0 24 24"><path id="path2" fill="none" d="M0 0h24v24H0V0z"/><path id="path4" d="M19 3h-1V1h-2v2H8V1H6v2H5c-1.1 0-2 .9-2 2v14c0 1.1.9 2 2 2h14c1.1 0 2-.9 2-2V5c0-1.1-.9-2-2-2zm0 16H5V9h14v10zM5 7V5h14v2H5zm5.56 10.46l5.93-5.93-1.06-1.06-4.87 4.87-2.11-2.11-1.06 1.06z" style="stroke:none;stroke-opacity:1;stroke-width:0;stroke-miterlimit:4;stroke-dasharray:none;fill:#4a5061;fill-opacity:1"/></svg>