<?xml version="1.0" encoding="UTF-8" standalone="no"?>
<!-- Created with Inkscape (http://www.inkscape.org/) -->

<svg
   width="21.609921mm"
   height="22.986359mm"
   viewBox="0 0 21.60992 22.986358"
   version="1.1"
   id="svg5"
   inkscape:version="1.1.1 (3bf5ae0d25, 2021-09-20)"
   sodipodi:docname="favicon.svg"
   inkscape:export-filename="/home/donnchadh/yoga_logo.png"
   inkscape:export-xdpi="3096.7625"
   inkscape:export-ydpi="3096.7625"
   xmlns:inkscape="http://www.inkscape.org/namespaces/inkscape"
   xmlns:sodipodi="http://sodipodi.sourceforge.net/DTD/sodipodi-0.dtd"
   xmlns="http://www.w3.org/2000/svg"
   xmlns:svg="http://www.w3.org/2000/svg">
  <sodipodi:namedview
     id="namedview7"
     pagecolor="#ffffff"
     bordercolor="#666666"
     borderopacity="1.0"
     inkscape:pageshadow="2"
     inkscape:pageopacity="0.0"
     inkscape:pagecheckerboard="0"
     inkscape:document-units="mm"
     showgrid="false"
     inkscape:snap-smooth-nodes="true"
     inkscape:object-nodes="false"
     fit-margin-top="0"
     fit-margin-left="0"
     fit-margin-right="0"
     fit-margin-bottom="0"
     inkscape:zoom="5.6568543"
     inkscape:cx="19.79899"
     inkscape:cy="47.287766"
     inkscape:window-width="2111"
     inkscape:window-height="1112"
     inkscape:window-x="616"
     inkscape:window-y="180"
     inkscape:window-maximized="0"
     inkscape:current-layer="layer1" />
  <defs
     id="defs2" />
  <g
     inkscape:label="Layer 1"
     inkscape:groupmode="layer"
     id="layer1"
     transform="translate(-89.120326,-107.31631)">
    <g
       id="g5623"
       transform="matrix(4.7424072,0,0,4.7424072,-332.83718,-487.71311)"
       style="fill:#ffa500;fill-opacity:1;stroke:#ffa500;stroke-width:0.106908;stroke-miterlimit:4;stroke-dasharray:none;stroke-opacity:1"
       inkscape:export-filename="/home/donnchadh/yoga_logo.png"
       inkscape:export-xdpi="3096.7625"
       inkscape:export-ydpi="3096.7625">
      <path
         id="circle4677"
         style="fill:#ffa500;fill-opacity:1;stroke:#ffa500;stroke-width:0.404061;stroke-linecap:square;stroke-linejoin:round;stroke-miterlimit:4;stroke-dasharray:none;stroke-opacity:1"
         d="m 344.75195,479.09766 a 5.1651804,5.1651804 0 0 0 -0.0273,0.50195 5.1651804,5.1651804 0 0 0 4.64648,5.13477 4.7363735,4.7363735 0 0 0 0.0899,-0.9004 4.7363735,4.7363735 0 0 0 -4.70899,-4.73632 z"
         transform="scale(0.26458333)" />
      <path
         id="circle4364"
         style="fill:#ffa500;fill-opacity:1;stroke:#ffa500;stroke-width:0.404061;stroke-linecap:square;stroke-linejoin:round;stroke-miterlimit:4;stroke-dasharray:none;stroke-opacity:1"
         d="m 344.69922,479.09766 a 4.7363735,4.7363735 0 0 0 -4.71094,4.73632 4.7363735,4.7363735 0 0 0 0.0898,0.9004 5.1651804,5.1651804 0 0 0 4.64649,-5.13477 5.1651804,5.1651804 0 0 0 -0.0254,-0.50195 z"
         transform="scale(0.26458333)" />
      <g
         id="g5431"
         transform="translate(0.21477325,-0.0728307)"
         style="fill:#ffa500;fill-opacity:1;stroke:#ffa500;stroke-width:0.106908;stroke-miterlimit:4;stroke-dasharray:none;stroke-opacity:1">
        <path
           id="path2631"
           style="fill:#ffa500;fill-opacity:1;stroke:#ffa500;stroke-width:0.106908;stroke-linecap:round;stroke-linejoin:miter;stroke-miterlimit:4;stroke-dasharray:none;stroke-opacity:1"
           d="m 89.290875,128.26607 a 1.7472735,1.7472735 0 0 0 -0.473358,0.0667 2.184097,2.184097 0 0 0 2.176095,2.0035 2.184097,2.184097 0 0 0 0.01292,-5.2e-4 1.7472735,1.7472735 0 0 0 0.03152,-0.32246 1.7472735,1.7472735 0 0 0 -1.747179,-1.74718 z" />
        <path
           id="path2740"
           style="fill:#ffa500;fill-opacity:1;stroke:#ffa500;stroke-width:0.106908;stroke-linecap:round;stroke-linejoin:miter;stroke-miterlimit:4;stroke-dasharray:none;stroke-opacity:1"
           d="m 92.787089,128.26607 a 1.7472735,1.7472735 0 0 1 0.473358,0.0667 2.184097,2.184097 0 0 1 -2.176094,2.0035 2.184097,2.184097 0 0 1 -0.01292,-5.2e-4 1.7472735,1.7472735 0 0 1 -0.03152,-0.32246 1.7472735,1.7472735 0 0 1 1.747178,-1.74718 z" />
      </g>
      <circle
         style="fill:#ffa500;fill-opacity:1;stroke:#ffa500;stroke-width:0.106908;stroke-linecap:round;stroke-linejoin:round;stroke-miterlimit:4;stroke-dasharray:none;stroke-opacity:1"
         id="circle3732"
         cx="91.208229"
         cy="125.97908"
         r="0.4557139" />
    </g>
    <path
       style="fill:#ffa500;fill-opacity:1;stroke:none;stroke-width:1.34144px;stroke-linecap:butt;stroke-linejoin:miter;stroke-opacity:1"
       d="m 93.859765,122.27608 0.761957,-4.98144 5.088381,-3.22428 3.728367,3.49007 2.96638,4.77728 -6.475221,6.17986 z"
       id="path3282" />
  </g>
</svg>
