<svg xmlns="http://www.w3.org/2000/svg" xmlns:svg="http://www.w3.org/2000/svg" id="svg5" width="81.675" height="86.878" version="1.1" viewBox="0 0 21.61 22.986"><g id="layer1" transform="translate(-89.120326,-107.31631)"><g id="g5623" transform="matrix(4.7424072,0,0,4.7424072,-332.83718,-487.71311)" style="fill:orange;fill-opacity:1;stroke:orange;stroke-width:.106908;stroke-miterlimit:4;stroke-dasharray:none;stroke-opacity:1"><path id="circle4677" d="m 344.75195,479.09766 a 5.1651804,5.1651804 0 0 0 -0.0273,0.50195 5.1651804,5.1651804 0 0 0 4.64648,5.13477 4.7363735,4.7363735 0 0 0 0.0899,-0.9004 4.7363735,4.7363735 0 0 0 -4.70899,-4.73632 z" transform="scale(0.26458333)" style="fill:orange;fill-opacity:1;stroke:orange;stroke-width:.404061;stroke-linecap:square;stroke-linejoin:round;stroke-miterlimit:4;stroke-dasharray:none;stroke-opacity:1"/><path id="circle4364" d="m 344.69922,479.09766 a 4.7363735,4.7363735 0 0 0 -4.71094,4.73632 4.7363735,4.7363735 0 0 0 0.0898,0.9004 5.1651804,5.1651804 0 0 0 4.64649,-5.13477 5.1651804,5.1651804 0 0 0 -0.0254,-0.50195 z" transform="scale(0.26458333)" style="fill:orange;fill-opacity:1;stroke:orange;stroke-width:.404061;stroke-linecap:square;stroke-linejoin:round;stroke-miterlimit:4;stroke-dasharray:none;stroke-opacity:1"/><g id="g5431" transform="translate(0.21477325,-0.0728307)" style="fill:orange;fill-opacity:1;stroke:orange;stroke-width:.106908;stroke-miterlimit:4;stroke-dasharray:none;stroke-opacity:1"><path id="path2631" d="m 89.290875,128.26607 a 1.7472735,1.7472735 0 0 0 -0.473358,0.0667 2.184097,2.184097 0 0 0 2.176095,2.0035 2.184097,2.184097 0 0 0 0.01292,-5.2e-4 1.7472735,1.7472735 0 0 0 0.03152,-0.32246 1.7472735,1.7472735 0 0 0 -1.747179,-1.74718 z" style="fill:orange;fill-opacity:1;stroke:orange;stroke-width:.106908;stroke-linecap:round;stroke-linejoin:miter;stroke-miterlimit:4;stroke-dasharray:none;stroke-opacity:1"/><path id="path2740" d="m 92.787089,128.26607 a 1.7472735,1.7472735 0 0 1 0.473358,0.0667 2.184097,2.184097 0 0 1 -2.176094,2.0035 2.184097,2.184097 0 0 1 -0.01292,-5.2e-4 1.7472735,1.7472735 0 0 1 -0.03152,-0.32246 1.7472735,1.7472735 0 0 1 1.747178,-1.74718 z" style="fill:orange;fill-opacity:1;stroke:orange;stroke-width:.106908;stroke-linecap:round;stroke-linejoin:miter;stroke-miterlimit:4;stroke-dasharray:none;stroke-opacity:1"/></g><circle style="fill:orange;fill-opacity:1;stroke:orange;stroke-width:.106908;stroke-linecap:round;stroke-linejoin:round;stroke-miterlimit:4;stroke-dasharray:none;stroke-opacity:1" id="circle3732" cx="91.208" cy="125.979" r=".456"/></g><path style="fill:orange;fill-opacity:1;stroke:none;stroke-width:1.34144px;stroke-linecap:butt;stroke-linejoin:miter;stroke-opacity:1" id="path3282" d="m 93.859765,122.27608 0.761957,-4.98144 5.088381,-3.22428 3.728367,3.49007 2.96638,4.77728 -6.475221,6.17986 z"/></g></svg>